HIERARCHY
ROOT ui
{
	 OFFSET 0 0 0
	 CHANNELS 3 XPosition YPosition Z Position
	 EndSite
	 {
	 OFFSET 0 -1 0
	 }
}
ROOT li
{
	 OFFSET 0 0 0
	 CHANNELS 3 XPosition YPosition Z Position
	 EndSite
	 {
	 OFFSET 0 -1 0
	 }
}
ROOT ul
{
	 OFFSET 0 0 0
	 CHANNELS 3 XPosition YPosition Z Position
	 EndSite
	 {
	 OFFSET 0 -1 0
	 }
}
ROOT ll
{
	 OFFSET 0 0 0
	 CHANNELS 3 XPosition YPosition Z Position
	 EndSite
	 {
	 OFFSET 0 -1 0
	 }
}
ROOT tt
{
	 OFFSET 0 0 0
	 CHANNELS 3 XPosition YPosition Z Position
	 EndSite
	 {
	 OFFSET 0 -1 0
	 }
}
ROOT tb
{
	 OFFSET 0 0 0
	 CHANNELS 3 XPosition YPosition Z Position
	 EndSite
	 {
	 OFFSET 0 -1 0
	 }
}
ROOT td
{
	 OFFSET 0 0 0
	 CHANNELS 3 XPosition YPosition Z Position
	 EndSite
	 {
	 OFFSET 0 -1 0
	 }
}
ROOT v
{
	 OFFSET 0 0 0
	 CHANNELS 3 XPosition YPosition Z Position
	 EndSite
	 {
	 OFFSET 0 -1 0
	 }
}
ROOT bn
{
	 OFFSET 0 0 0
	 CHANNELS 3 XPosition YPosition Z Position
	 EndSite
	 {
	 OFFSET 0 -1 0
	 }
}
MOTION
Frames: 29
Frame Time: 0.002
-0.011522884368896485	5.16601026058197E-4	0		0.3948357543945312	-2.3833349609375	0		-1.12625244140625	-0.029048982620239257	0		-0.864384033203125	-2.3292373046875	0		1.313443115234375	-0.5588716430664062	0		3.094780029296875	-0.011441763877868652	0		4.4947734375	0.02989527702331543	0		5.551576171875	0.11853292083740234	0		-0.1690039520263672	5.9203994140625	0		
-0.007540760993957519	4.0639600157737734E-4	0		0.3948460693359375	-2.38835107421875	0		-1.12634130859375	-0.033140995025634765	0		-0.8653579711914062	-2.3332978515625	0		1.30825341796875	-0.5697493286132812	0		3.069328857421875	-0.03486267471313476	0		4.4939013671875	0.03810000991821289	0		5.555552734375	0.11870028686523437	0		-0.16531719970703124	5.92028125	0		
-0.006739436149597168	-0.0026433200836181643	0		0.39882315063476564	-2.388435546875	0		-1.1265380859375	-0.03622941207885742	0		-0.8613836669921875	-2.333446533203125	0		1.3121380615234375	-0.5697872924804688	0		3.103381591796875	-0.02435988426208496	0		4.4929013671875	0.04631402206420898	0		5.554275390625	0.1119708251953125	0		-0.2951419982910156	5.90059716796875	0		
2.5872999802231787E-5	2.0227000117301942E-4	0		0.42961492919921873	-2.3910048828125	0		-1.118771240234375	-0.0334589729309082	0		-0.8575538330078125	-2.33358935546875	0		1.3189503173828125	-0.5658748168945312	0		3.1129658203125	-0.031408981323242186	0		4.5014638671875	0.03835395812988281	0		5.56310693359375	0.11906227111816406	0		-0.1583529815673828	5.92006103515625	0		
0.00357594108581543	1.0938499867916108E-4	0		0.4104159851074219	-2.38366015625	0		-1.1052392578125	-0.034789295196533204	0		-0.8508506469726562	-2.331780029296875	0		1.32865478515625	-0.5590112915039063	0		3.105791259765625	-0.016148305892944335	0		4.50501220703125	0.03848745727539062	0		5.5666513671875	0.11924916076660157	0		-0.15510063171386718	5.91996044921875	0		
0.011002107620239258	0.0029506831169128418	0		0.43881185913085935	-2.38917724609375	0		-1.1077735595703124	-0.02982227897644043	0		-0.84736279296875	-2.331908203125	0		1.3320550537109375	-0.5590316772460937	0		3.092004638671875	-0.024771963119506836	0		4.5083828125	0.03862404251098633	0		5.570017578125	0.11943821716308593	0		-0.1520206298828125	5.91986669921875	0		
-0.06684220123291015	0.0023337500095367432	0		0.41311053466796877	-2.388711669921875	0		-1.1045933837890625	-0.029954431533813476	0		-0.847107177734375	-2.333973388671875	0		1.3700926513671876	-0.5686759643554687	0		3.121306640625	-0.018171625137329103	0		4.5115595703125	0.03876277542114258	0		5.57319091796875	0.1196281509399414	0		-0.14912742614746094	5.9197802734375	0		
0.010045074462890624	-0.0030712289810180663	0		0.44315283203125	-2.3912490234375	0		-1.072769287109375	-0.038597591400146486	0		-0.846062744140625	-2.3360478515625	0		1.3290616455078126	-0.5698915405273437	0		3.094067626953125	-0.029555816650390625	0		4.514529296875	0.0389017448425293	0		5.57103125	0.11290767669677734	0		-0.14643199157714842	5.9197021484375	0		
-0.06111488723754883	0.0021925249099731445	0		0.41905563354492187	-2.388809326171875	0		-1.0929537353515626	-0.035297042846679685	0		-0.84320263671875	-2.3361494140625	0		1.337734619140625	-0.5760031127929688	0		3.107948974609375	-0.022680694580078126	0		4.51728369140625	0.03903857421875	0		5.5689267578125	0.12117993927001953	0		-0.2773124694824219	5.90002197265625	0		
0.02737529945373535	-0.0014062399864196778	0		0.4802747802734375	-2.412901123046875	0		-1.086359375	-0.03247197723388672	0		-0.8256384887695313	-2.340509521484375	0		1.3334072265625	-0.5698792724609375	0		3.114202880859375	-0.038675819396972656	0		4.524677734375	0.03108356475830078	0		5.5814423828125	0.12017854309082031	0		-0.12552555847167968	5.92628125	0		
-0.02719905471801758	0.004562345981597901	0		0.4302421875	-2.381989990234375	0		-1.047036865234375	-0.033225997924804684	0		-0.8330737915039063	-2.3324150390625	0		1.38690966796875	-0.5617886962890625	0		3.13111865234375	-0.005857350826263427	0		4.5221474609375	0.03930146789550781	0		5.5837646484375	0.12035039520263671	0		-0.13859222412109376	5.91749560546875	0		
0.022842422485351562	-3.3707499504089357E-4	0		0.45328851318359376	-2.39139013671875	0		-1.091871826171875	-0.03047124481201172	0		-0.8339007568359375	-2.334435791015625	0		1.345022705078125	-0.562995361328125	0		3.09192529296875	-0.02304938507080078	0		4.5242666015625	0.03942798233032226	0		5.585880859375	0.12051679992675782	0		-0.13765817260742189	5.91946435546875	0		
-0.05220632934570312	0.0019957319498062134	0		0.4283344421386719	-2.388931640625	0		-1.089949462890625	-0.030547664642333983	0		-0.8339320068359375	-2.33646728515625	0		1.3818160400390624	-0.5716067504882812	0		3.125824462890625	-0.024546560287475587	0		4.5261865234375	0.039550739288330077	0		5.5877978515625	0.12067720031738281	0		-0.13594685363769532	5.919421875	0		
0.023442155838012697	-0.0033525049686431883	0		0.4301449890136719	-2.388950439453125	0		-1.0823070068359375	-0.03572271347045899	0		-0.868064208984375	-2.33288916015625	0		1.3277349853515625	-0.5616009521484375	0		3.127556396484375	-0.02447589874267578	0		4.52791650390625	0.039667888641357424	0		5.5844013671875	0.11391948699951172	0		-0.13442987060546874	5.918384765625	0		
-0.04892145538330078	0.001929648995399475	0		0.43382485961914063	-2.3860029296875	0		-1.0766995849609375	-0.032856971740722656	0		-0.828462646484375	-2.334618896484375	0		1.3533553466796875	-0.559015869140625	0		3.1343583984375	-0.010500516891479492	0		4.52946875	0.039777042388916016	0		5.58109423828125	0.1221484146118164	0		-0.26640896606445313	5.89971142578125	0		
0.03842156219482422	-0.0016208159923553466	0		0.4352836608886719	-2.38601806640625	0		-1.0753067626953126	-0.03291448211669922	0		-0.8270052490234375	-2.33466943359375	0		1.333783935546875	-0.5576337890625	0		3.114506103515625	-0.02406617546081543	0		4.53085986328125	0.03987661743164062	0		5.59246337890625	0.12110062408447266	0		-0.13183149719238282	5.91831982421875	0		
0.030687549591064452	-4.868839979171753E-4	0		0.46149932861328125	-2.391473876953125	0		-1.0411348876953126	-0.037550537109375	0		-0.79079248046875	-2.34033447265625	0		1.3560240478515626	-0.55899658203125	0		3.141873291015625	-0.017472993850708007	0		4.53210546875	0.03996664047241211	0		5.59370703125	0.12121781921386719	0		-0.13073611450195313	5.91829052734375	0		
0.02875033950805664	-0.003458092927932739	0		0.4357103576660156	-2.38901220703125	0		-1.0829061279296874	-0.0308424015045166	0		-0.828598388671875	-2.338690185546875	0		1.347959716796875	-0.5698294067382812	0		3.116869384765625	-0.02396442413330078	0		4.5332197265625	0.04004795455932617	0		5.59481982421875	0.12132411956787109	0		-0.12974249267578125	5.91926171875	0		
-0.016321914672851563	-0.006671067237854004	0		0.4637137756347656	-2.39150341796875	0		-1.0760035400390624	-0.0359959716796875	0		-0.827556640625	-2.3387333984375	0		1.3581556396484376	-0.5589856567382813	0		3.113002685546875	-0.01583499526977539	0		4.5342099609375	0.0401212158203125	0		5.59580810546875	0.12142041778564452	0		-0.12889750671386718	5.91823388671875	0		
-0.04023599624633789	0.005742472171783447	0		0.4417589111328125	-2.38411474609375	0		-1.06109912109375	-0.034288719177246095	0		-0.8564762573242187	-2.329247314453125	0		1.369824462890625	-0.5711748657226563	0		3.12948388671875	-0.03807568359375	0		4.53993798828125	0.03210039138793945	0		5.59667626953125	0.12150756072998047	0		-0.27845623779296874	5.90185107421875	0		
0.03847183990478516	0.0023470540046691894	0		0.46950115966796874	-2.387604248046875	0		-1.033329833984375	-0.0338063850402832	0		-0.8217713012695312	-2.334883544921875	0		1.359802978515625	-0.55898095703125	0		3.153799072265625	-0.006450478076934814	0		4.53583447265625	0.040247825622558596	0		5.59742919921875	0.12158778381347657	0		-0.11132551574707031	5.9278984375	0		
-0.04190350723266602	0.00175033700466156	0		0.4391600036621094	-2.38907177734375	0		-1.06967626953125	-0.033195362091064454	0		-0.8231178588867187	-2.336883544921875	0		1.3604600830078124	-0.5589781494140625	0		3.120135498046875	-0.023815956115722656	0		4.5316220703125	0.04839299392700196	0		5.59807421875	0.12166494750976563	0		-0.12695539093017577	5.918158203125	0		
0.03256318283081055	-0.0035677330493927	0		0.46671044921875	-2.391556884765625	0		-1.03620263671875	-0.03781150054931641	0		-0.8265986328125	-2.340845947265625	0		1.3548961181640624	-0.5658671264648437	0		3.12068408203125	-0.023780860900878907	0		4.5370283203125	0.04036599349975586	0		5.59349853515625	0.11483180236816407	0		-0.1264919891357422	5.91913720703125	0		
-0.04089626693725586	0.001712923049926758	0		0.4402507019042969	-2.389092529296875	0		-1.0727197265625	-0.036198047637939455	0		-0.824063720703125	-2.338912841796875	0		1.3614869384765624	-0.558966552734375	0		3.13714111328125	-0.02402356719970703	0		4.53748681640625	0.04042879486083984	0		5.59395556640625	0.11491319274902344	0		-0.12613716888427734	5.91911767578125	0		
0.03645452499389648	-6.517720222473145E-4	0		0.4696696472167969	-2.389607666015625	0		-1.064217529296875	-0.02937385368347168	0		-0.81957177734375	-2.335013671875	0		1.34089794921875	-0.55758935546875	0		3.1368896484375	-0.0029676709175109864	0		4.5378662109375	0.0404957389831543	0		5.59945556640625	0.12191058349609375	0		-0.1258816375732422	5.9181005859375	0		
-0.03713394927978515	0.0056297569274902344	0		0.4451180114746094	-2.38417578125	0		-1.0679737548828125	-0.03333638381958008	0		-0.8192157592773438	-2.335042236328125	0		1.3622001953125	-0.5589452514648438	0		3.1277138671875	-0.03076105499267578	0		4.53817822265625	0.04056656646728515	0		5.599765625	0.12200111389160156	0		-0.12567879486083985	5.9180849609375	0		
0.03702413558959961	-6.758170127868652E-4	0		0.46829364013671876	-2.391580322265625	0		-1.0677161865234375	-0.03336838531494141	0		-0.8209498291015624	-2.3370341796875	0		1.362467529296875	-0.5589317626953125	0		3.1522998046875	-0.012137001991271972	0		4.53843408203125	0.040639469146728516	0		5.59489892578125	0.11518236541748048	0		-0.12553263092041014	5.9180703125	0		
-0.04278555297851563	-0.0012892860174179078	0		0.4395548095703125	-2.391076904296875	0		-1.0715543212890626	-0.036329097747802734	0		-0.8247633056640625	-2.340990234375	0		1.3975283203125	-0.5685281982421875	0		3.12230810546875	-0.02356515121459961	0		4.533787109375	0.04879703140258789	0		5.59510986328125	0.11527313995361328	0		-0.12541033172607421	5.919056640625	0		
0.03741860580444336	-6.980400085449219E-4	0		0.4418114318847656	-2.38911669921875	0		-1.067320556640625	-0.03342956924438477	0		-0.85844970703125	-2.335423828125	0		1.34190234375	-0.557541015625	0		3.117630126953125	-0.015438133239746094	0		4.5388271484375	0.04077599716186524	0		5.5952890625	0.11535614776611328	0		-0.1253469009399414	5.91804248046875	0		
